<?xml version="1.0" encoding="utf-8"?>
<!-- Generator: Adobe Illustrator 18.0.0, SVG Export Plug-In . SVG Version: 6.00 Build 0)  -->
<!DOCTYPE svg PUBLIC "-//W3C//DTD SVG 1.1//EN" "http://www.w3.org/Graphics/SVG/1.1/DTD/svg11.dtd">
<svg version="1.1" id="Layer_1" xmlns="http://www.w3.org/2000/svg" xmlns:xlink="http://www.w3.org/1999/xlink" x="0px" y="0px"
	 viewBox="180 155 166 167" enable-background="new 180 155 166 167" xml:space="preserve">
<g>
	<g>
		<path fill="#FFFFFF" d="M268.3,246.4h-19v32.9h-12.7c0,0,0-74,0-77.3c0-3.3,3.1-6.3,6.5-6.3s25.2,0,25.2,0
			c16.4,0,26.8,10.8,26.8,25.4C295.1,235.6,284.7,246.4,268.3,246.4z M267.6,207.1h-18.3v27.8h18.3c8.8,0,14.8-5.1,14.8-13.9
			C282.4,212.2,276.5,207.1,267.6,207.1z"/>
	</g>
	<g>
		<path fill="#FFFFFF" d="M296.8,279.3l-19.3-27.7c0,0-2.1,1-8.6,1c-3.8,0-6.2,0-6.2,0l18.3,26.6H296.8z"/>
	</g>
</g>
<g>
	<path fill="#80A69F" d="M193.2,239.1c-0.1-17.5,5.6-32.5,17-45.7l-9.2-8c-13.4,15.5-20,33.2-19.9,53.7
		c0.1,45.2,36.9,81.8,82.1,81.6v-12.2C224.6,308.7,193.3,277.7,193.2,239.1z"/>
</g>
<g>
	<path fill="#EBA227" d="M331.8,248.5L331.8,248.5c-4.8,34.7-33.8,60-68.8,60.1l0,0v12.2c41.1-0.1,75.3-30,80.9-70.6L331.8,248.5z"
		/>
</g>
<g>
	<path fill="#70C3DC" d="M306.1,169.4l-6.4,10.4l0,0c23.7,14.8,36,41,32.3,68.7l12.1,1.6C348.4,217.6,334,186.8,306.1,169.4z"/>
</g>
<g>
	<path fill="#A3C533" d="M299.6,179.9l6.4-10.4c-21-13-43.8-16-67.4-8.7l3.6,11.7l0,0C262.3,166.3,281.8,168.8,299.6,179.9z"/>
</g>
<g>
	<path fill="#CC4B29" d="M242.3,172.5l-3.6-11.7c-15.7,4.9-27,12.2-37.8,24.7l9.2,8l0,0C219.3,182.9,229,176.6,242.3,172.5z"/>
</g>
</svg>
