<?xml version="1.0" encoding="utf-8"?>
<!-- Generator: Adobe Illustrator 18.0.0, SVG Export Plug-In . SVG Version: 6.00 Build 0)  -->
<!DOCTYPE svg PUBLIC "-//W3C//DTD SVG 1.1//EN" "http://www.w3.org/Graphics/SVG/1.1/DTD/svg11.dtd">
<svg version="1.1" id="Layer_1" xmlns="http://www.w3.org/2000/svg" xmlns:xlink="http://www.w3.org/1999/xlink" x="0px" y="0px"
	 viewBox="156 246 300 300" enable-background="new 156 246 300 300" xml:space="preserve">
<g>
	<g>
		<path fill="#FFFFFF" d="M315.6,409.6h-34.7v60.1h-23.2c0,0,0-135.3,0-141.3s5.7-11.5,11.9-11.5s46.1,0,46.1,0
			c29.9,0,48.9,19.7,48.9,46.4C364.6,389.9,345.5,409.6,315.6,409.6z M314.4,337.7h-33.5v50.9h33.5c16.2,0,27-9.2,27-25.4
			C341.5,347.1,330.5,337.7,314.4,337.7z"/>
	</g>
	<g>
		<path fill="#FFFFFF" d="M367.8,469.7l-35.2-50.6c0,0-3.9,1.8-15.8,1.8c-6.9,0-11.4,0-11.4,0l33.5,48.7L367.8,469.7z"/>
	</g>
</g>
<g>
	<path fill="#75C6B8" d="M178.3,396.3c-0.1-32,10.2-59.4,31-83.6l-16.9-14.7c-24.6,28.4-36.6,60.7-36.5,98.2
		c0.2,82.6,67.4,149.5,150,149.2v-22.3C235.6,523.5,178.5,466.7,178.3,396.3z"/>
</g>
<g>
	<path fill="#FAB718" d="M431.7,413.4L431.7,413.4c-8.8,63.4-61.9,109.8-125.8,109.9l0,0v22.3c75.1-0.2,137.6-54.8,147.8-129.2
		L431.7,413.4z"/>
</g>
<g>
	<path fill="#54C7E6" d="M384.6,268.9l-11.8,18.9l0,0c43.4,27,65.9,74.9,59,125.6l22.2,3C462.1,357,435.7,300.6,384.6,268.9z"/>
</g>
<g>
	<path fill="#8AC640" d="M372.8,287.9l11.8-18.9c-38.3-23.8-80.1-29.2-123.2-15.9l6.6,21.4l0,0C304.7,263.1,340.3,267.6,372.8,287.9
		z"/>
</g>
<g>
	<path fill="#F05F25" d="M268.1,274.4l-6.6-21.4c-28.6,8.9-49.4,22.4-69,45.1l16.9,14.7l0,0C226.1,293.5,243.7,281.9,268.1,274.4z"
		/>
</g>
</svg>
