<?xml version="1.0" encoding="utf-8"?>
<!-- Generator: Adobe Illustrator 18.0.0, SVG Export Plug-In . SVG Version: 6.00 Build 0)  -->
<!DOCTYPE svg PUBLIC "-//W3C//DTD SVG 1.1//EN" "http://www.w3.org/Graphics/SVG/1.1/DTD/svg11.dtd">
<svg version="1.1" id="Layer_1" xmlns="http://www.w3.org/2000/svg" xmlns:xlink="http://www.w3.org/1999/xlink" x="0px" y="0px"
	 viewBox="220 229.8 360 340" enable-background="new 220 229.8 360 340" xml:space="preserve">
<path fill="#CCCCCC" d="M512.9,419.4l-0.5-0.5l-0.5-0.4c-5.3-4.3-10.5-5.3-14-5.3c-5.7,0-10.9,2.1-14.8,6.1
	c-3.8,3.8-6.1,9.2-6.1,14.8v19.2h-30.6c-3.4,0-6.4-0.5-9.1-1.6c-3-1.1-5.5-2.5-7.3-3.9c-1.3-1.1-3.5-3.1-6.3-7.1
	c-2.7-3.8-4.8-7.1-6.4-9.9c-1.6-3-3.7-7.2-6.3-12.3l-3.4-7.1c2.6-5.9,5.1-10.8,7.1-14.8c2.6-4.9,5.1-9.2,7.2-12.4
	c1.9-2.9,4.3-5.9,7.3-8.7c2.1-2.1,4.4-3.6,7.1-4.6c2.9-1.1,6.3-1.7,10.1-1.7h30.6v19.2c0,5.6,2.2,10.8,6.2,14.7
	c3.9,3.9,9.2,6.2,14.7,6.2c5.7,0,10.9-2.1,14.8-6.1l57.2-57.2c3.9-3.9,6.1-9.2,6.1-14.8c0-5.7-2.1-10.9-6.1-14.8l-57-57.2l-0.5-0.5
	l-0.5-0.4c-5.3-4.3-10.5-5.3-14-5.3c-5.7,0-10.9,2.1-14.8,6.1s-6.1,9.2-6.1,14.8v19.2h-30.6c-9.4,0-18.5,1.2-26.9,3.5
	c-8.3,2.3-15.8,5.3-22.3,8.9c-6.8,3.7-13.3,8.7-19.5,14.7c-4.2,4.1-8,8.3-11.4,12.3C345,306.4,318,293.2,286,293.2h-40.1
	c-5.7,0-10.9,2.1-14.8,6.1s-6.1,9.2-6.1,14.8v34.3c0,5.7,2.1,10.9,6.1,14.8s9.2,6.1,14.8,6.1H286c3.4,0,6.4,0.5,9.1,1.6
	c3,1.1,5.5,2.5,7.3,3.9c1.3,1.1,3.5,3.1,6.3,7.1c2.7,3.8,4.8,7.1,6.3,9.9c1.7,3,3.8,7.3,6.3,12.3l3.4,7.1
	c-2.6,5.9-5.1,10.8-7.1,14.8c-2.6,4.9-5.1,9.2-7.2,12.4c-1.9,2.9-4.3,5.9-7.3,8.7c-2.1,2.1-4.4,3.6-7.1,4.6
	c-2.9,1.1-6.3,1.7-10.1,1.7h-40.1c-5.7,0-10.9,2.1-14.8,6.1c-3.8,3.8-6.1,9.2-6.1,14.8v34.3c0,5.7,2.1,10.9,6.1,14.8
	c3.9,3.9,9.2,6.1,14.8,6.1h40.1c9.4,0,18.5-1.2,26.9-3.5c8.3-2.2,15.8-5.3,22.3-8.9c6.8-3.7,13.3-8.7,19.5-14.7
	c4.2-4.1,8.1-8.3,11.4-12.3c2,2.4,4,4.7,6.1,7c3.7,3.9,7.4,7.5,10.8,10.5c4,3.5,8.6,6.7,13.6,9.3c4.1,2.1,7.8,3.9,11,5.4
	c4.1,1.9,9,3.3,14.8,4.4c4.8,0.9,8.9,1.5,12.2,2c3.6,0.5,8.3,0.8,14.2,1c4.1,0.1,7.8,0.2,10.9,0.2c1,0,2,0,2.9,0
	c2.5,0,7.1-0.1,14.2-0.2v19.1c0,5.6,2.2,10.8,6.2,14.7c3.9,3.9,9.2,6.2,14.7,6.2c5.7,0,10.9-2.1,14.8-6.1l57.3-57.3
	c3.9-3.9,6.1-9.2,6.1-14.8s-2.1-10.9-6.1-14.8L512.9,419.4z"/>
<g>
	<path fill="#FFFFFF" d="M246,334.2h40.1c5.3,0,10.1,0.9,14.5,2.6c4.4,1.7,8.2,3.8,11.3,6.3c3,2.4,6.1,5.9,9.1,10.1
		c3,4.3,5.5,8.1,7.3,11.3c1.8,3.2,4,7.6,6.7,12.9c9.2-21.6,17.4-37.9,24.5-48.8c-19.1-26.9-43.5-40.2-73.3-40.2h-40.1
		c-1.7,0-3,0.5-4.1,1.6c-1.1,1.1-1.6,2.4-1.6,4.1v34.3c0,1.7,0.5,3,1.6,4.1C243,333.7,244.3,334.2,246,334.2z"/>
	<path fill="#808283" d="M286.1,288.4c29.8,0,54.2,13.4,73.3,40.2c-7.2,11-15.4,27.3-24.5,48.8c-2.6-5.4-4.8-9.7-6.7-12.9
		c-1.8-3.2-4.2-7.1-7.3-11.3c-3-4.2-6.1-7.7-9.1-10.1c-3-2.4-6.8-4.5-11.3-6.3c-4.4-1.7-9.3-2.6-14.5-2.6h-40.1
		c-1.7,0-3-0.5-4.1-1.6s-1.6-2.4-1.6-4.1v-34.3c0-1.7,0.5-3,1.6-4.1s2.4-1.6,4.1-1.6h40.2 M286.1,273.3H246
		c-5.7,0-10.9,2.1-14.8,6.1c-3.9,3.9-6.1,9.2-6.1,14.8v34.3c0,5.7,2.1,10.9,6.1,14.8c3.9,3.9,9.2,6.1,14.8,6.1h40.1
		c3.4,0,6.4,0.5,9.1,1.6c3,1.1,5.5,2.5,7.3,3.9c1.3,1.1,3.5,3.1,6.3,7.1c2.7,3.8,4.8,7.1,6.3,9.9c1.7,3,3.8,7.3,6.3,12.3l14.5,29.8
		l13-30.5c8.8-20.7,16.7-36.4,23.2-46.5l5.7-8.7l-6-8.4C349.7,288.9,320.9,273.3,286.1,273.3L286.1,273.3z"/>
</g>
<g>
	<path fill="#FFFFFF" d="M502.2,410.4c-1.4-1.2-2.8-1.8-4.3-1.8c-1.7,0-3,0.5-4.1,1.6s-1.6,2.4-1.6,4.1v34.3h-45.8
		c-5.3,0-10.1-0.9-14.5-2.6c-4.4-1.7-8.2-3.8-11.3-6.3c-3-2.4-6.1-5.9-9.1-10.1c-3-4.2-5.5-8.1-7.3-11.3c-1.8-3.2-4-7.6-6.7-12.9
		c-9.2,21.5-17.3,37.8-24.3,48.8c3.2,4.6,6.6,8.8,10,12.4c3.4,3.6,6.8,6.9,9.8,9.6s6.7,5.2,10.5,7.2c3.9,2,7.4,3.7,10.4,5.1
		c3,1.4,6.8,2.4,11.3,3.3c4.5,0.8,8.4,1.4,11.4,1.9c3.1,0.4,7.4,0.7,12.7,0.9c5.4,0.2,9.7,0.2,13,0.2c3.3-0.1,8.2-0.1,14.4-0.2
		s11.4-0.1,15.3-0.1v34.3c0,1.5,0.6,2.9,1.7,4s2.4,1.7,4,1.7c1.7,0,3-0.5,4.1-1.6l57.3-57.3c1.1-1.1,1.6-2.4,1.6-4.1
		c0-1.7-0.5-3-1.6-4.1L502.2,410.4z"/>
	<path fill="#808283" d="M397.5,405.4c2.6,5.4,4.8,9.7,6.7,12.9c1.8,3.2,4.2,7.1,7.3,11.3c3,4.3,6.1,7.7,9.1,10.1
		c3,2.4,6.8,4.5,11.3,6.3c4.4,1.7,9.3,2.6,14.5,2.6h45.8v-34.3c0-1.7,0.5-3,1.6-4.1s2.4-1.6,4.1-1.6c1.4,0,2.8,0.6,4.3,1.8
		l57.1,57.1c1.1,1.1,1.6,2.4,1.6,4.1c0,1.7-0.5,3-1.6,4.1L502.1,533c-1.1,1.1-2.4,1.6-4.1,1.6c-1.5,0-2.9-0.6-4-1.7
		c-1.1-1.1-1.7-2.4-1.7-4v-34.3c-3.8,0-8.9,0-15.3,0.1s-11.1,0.1-14.4,0.2c-0.8,0-1.7,0-2.6,0c-2.9,0-6.4-0.1-10.4-0.2
		c-5.4-0.2-9.6-0.5-12.7-0.9s-6.9-1-11.4-1.9c-4.5-0.8-8.3-1.9-11.3-3.3c-3-1.4-6.5-3-10.4-5.1s-7.5-4.4-10.5-7.2
		c-3.1-2.7-6.4-6-9.8-9.6c-3.4-3.6-6.8-7.8-10-12.4C380.2,443.2,388.3,426.9,397.5,405.4 M396.6,369l-13,30.4
		c-8.8,20.6-16.7,36.4-23.2,46.7l-5.4,8.5l5.8,8.3c3.6,5.3,7.5,10.1,11.5,14.2c3.7,3.9,7.4,7.5,10.8,10.5c4,3.5,8.6,6.7,13.6,9.3
		c4.1,2.1,7.8,3.9,11,5.4c4.1,1.9,9,3.3,14.8,4.4c4.8,0.9,8.9,1.5,12.2,2c3.6,0.5,8.3,0.8,14.2,1c4.1,0.1,7.8,0.2,10.9,0.2
		c1,0,2,0,2.9,0c2.5,0,7.1-0.1,14.2-0.2v19.1c0,5.6,2.2,10.8,6.2,14.7c3.9,3.9,9.2,6.2,14.7,6.2c5.7,0,10.9-2.1,14.8-6.1l57.3-57.3
		c3.9-3.9,6.1-9.2,6.1-14.8c0-5.7-2.1-10.9-6.1-14.8l-57.1-57.1l-0.5-0.5l-0.5-0.4c-5.3-4.3-10.5-5.3-14-5.3
		c-5.7,0-10.9,2.1-14.8,6.1c-3.8,3.8-6.1,9.2-6.1,14.8v19.2h-30.6c-3.4,0-6.4-0.5-9.1-1.6c-3-1.1-5.5-2.5-7.3-3.9
		c-1.3-1.1-3.5-3.1-6.3-7.1c-2.7-3.8-4.8-7.1-6.4-9.9c-1.6-3-3.7-7.2-6.3-12.3L396.6,369L396.6,369z"/>
</g>
<g>
	<path fill="#CCCCCC" d="M403.6,417.2c-0.5-0.8-1.2-2-3.8-7.5c-9.2,21.5-17.3,36.4-24.2,47.5c3.2,4.6,1.1,2.1,4.5,5.8
		C380,463.1,393.9,449.1,403.6,417.2z"/>
</g>
<g>
	<path fill="#FFFFFF" d="M387.3,400.4c5.5-13,10.1-23.2,13.9-30.6c2.8-5.5,5.6-10.1,8.1-13.8c2.5-3.7,5.6-7.4,9.1-11
		c3.5-3.5,7.7-6.3,12.3-8.1c4.6-1.8,9.8-2.7,15.6-2.7h45.8v34.3c0,1.5,0.6,2.9,1.7,4c1.1,1.1,2.4,1.7,4,1.7c1.7,0,3-0.5,4.1-1.6
		l57.3-57.3c1.1-1.1,1.6-2.4,1.6-4.1c0-1.7-0.5-3-1.6-4.1L502.2,250c-1.4-1.2-2.8-1.8-4.2-1.8c-1.7,0-3,0.5-4.1,1.6
		s-1.6,2.4-1.6,4.1v34.3h-45.8c-8.1,0-15.8,1-22.9,2.9s-13.5,4.4-19.1,7.5c-5.6,3-10.9,7.2-16.1,12.2c-5.2,5.2-9.6,10.1-13.2,14.8
		c-3.6,4.7-7.5,10.7-11.4,17.9s-7.2,13.4-9.7,18.8c-2.4,5.4-5.4,12-8.9,19.9c-5.5,13-10.1,23.2-13.9,30.6
		c-2.8,5.5-5.6,10.1-8.1,13.8c-2.5,3.7-5.6,7.4-9.1,11c-3.5,3.5-7.7,6.3-12.3,8.1c-4.6,1.8-9.8,2.7-15.6,2.7H246
		c-1.7,0-3,0.5-4.1,1.6c-1.1,1.1-1.6,2.4-1.6,4.1v34.3c0,1.7,0.5,3,1.6,4.1s2.4,1.6,4.1,1.6h40.1c8.1,0,15.8-1,22.9-2.9
		c7.2-1.9,13.5-4.4,19.1-7.5s10.9-7.2,16.1-12.2c5.2-5.2,9.6-10.1,13.2-14.8c3.6-4.7,7.5-10.7,11.4-17.9c4-7.2,7.2-13.4,9.7-18.8
		C380.9,414.9,383.9,408.2,387.3,400.4z"/>
	<path fill="#808283" d="M497.8,248.3c1.4,0,2.8,0.6,4.2,1.8l57.1,57.1c1.1,1.1,1.6,2.4,1.6,4.1c0,1.7-0.5,3-1.6,4.1l-57.3,57.3
		c-1.1,1.1-2.4,1.6-4.1,1.6c-1.5,0-2.9-0.6-4-1.7c-1.1-1.1-1.7-2.4-1.7-4v-34.3h-45.8c-5.8,0-10.9,0.9-15.6,2.7
		c-4.6,1.8-8.8,4.4-12.3,8.1c-3.5,3.5-6.7,7.3-9.1,11c-2.5,3.7-5.2,8.4-8.1,13.8c-3.8,7.4-8.5,17.6-13.9,30.6
		c-3.4,7.9-6.4,14.4-8.9,19.9c-2.4,5.4-5.7,11.6-9.7,18.8s-7.8,13.1-11.4,17.9c-3.6,4.7-8.1,9.7-13.2,14.8
		c-5.2,5.2-10.5,9.2-16.1,12.2c-5.6,3-11.9,5.6-19.1,7.5s-14.7,2.9-22.9,2.9h-40.1c-1.7,0-3-0.5-4.1-1.6s-1.6-2.4-1.6-4.1v-34.3
		c0-1.7,0.5-3,1.6-4.1c1.1-1.1,2.4-1.6,4.1-1.6h40.1c5.8,0,10.9-0.9,15.6-2.7c4.6-1.8,8.8-4.4,12.3-8.1c3.5-3.5,6.7-7.3,9.1-11
		c2.5-3.7,5.2-8.4,8.1-13.8c3.8-7.4,8.5-17.6,13.9-30.6c3.4-7.9,6.4-14.4,8.9-19.9c2.4-5.4,5.7-11.6,9.7-18.8s7.8-13.1,11.4-17.9
		c3.6-4.7,8.1-9.7,13.2-14.8s10.5-9.2,16.1-12.2c5.6-3,11.9-5.6,19.1-7.5s14.7-2.9,22.9-2.9h45.8v-34.3c0-1.7,0.5-3,1.6-4.1
		C494.8,248.9,496.2,248.3,497.8,248.3 M497.8,233.2c-5.7,0-10.9,2.1-14.8,6.1s-6.1,9.2-6.1,14.8v19.2h-30.6
		c-9.4,0-18.5,1.2-26.9,3.5c-8.3,2.3-15.8,5.3-22.3,8.9c-6.8,3.7-13.3,8.7-19.5,14.7c-5.7,5.6-10.6,11.1-14.6,16.5
		s-8.3,11.9-12.6,19.7c-4.1,7.5-7.6,14.1-10.2,19.9c-2.4,5.4-5.5,12.1-8.9,20v0.1v0.1c-5.4,12.6-9.8,22.5-13.4,29.5
		c-2.6,4.9-5.1,9.2-7.2,12.4c-1.9,2.9-4.3,5.9-7.3,8.7c-2.1,2.1-4.4,3.6-7.1,4.6c-2.9,1.1-6.3,1.7-10.1,1.7h-40.1
		c-5.7,0-10.9,2.1-14.8,6.1c-3.8,3.8-6.1,9.2-6.1,14.8v34.3c0,5.7,2.1,10.9,6.1,14.8c3.9,3.9,9.2,6.1,14.8,6.1h40.1
		c9.4,0,18.5-1.2,26.9-3.5c8.3-2.2,15.8-5.3,22.3-8.9c6.8-3.7,13.3-8.7,19.5-14.7c5.7-5.6,10.6-11.1,14.6-16.5
		c4-5.4,8.3-11.9,12.6-19.7c4.1-7.5,7.6-14.1,10.2-19.9c2.4-5.4,5.5-12.1,8.9-20v-0.1v-0.1c5.3-12.5,9.8-22.5,13.4-29.5
		c2.6-4.9,5.1-9.2,7.2-12.4c1.9-2.9,4.3-5.9,7.3-8.7c2.1-2.1,4.4-3.6,7.1-4.6c2.9-1.1,6.3-1.7,10.1-1.7h30.6v19.2
		c0,5.6,2.2,10.8,6.2,14.7c3.9,3.9,9.2,6.2,14.7,6.2c5.7,0,10.9-2.1,14.8-6.1l57.2-57.2c3.9-3.9,6.1-9.2,6.1-14.8
		c0-5.7-2.1-10.9-6.1-14.8l-57.1-57.1l-0.5-0.5l-0.5-0.4C506.6,234.1,501.3,233.2,497.8,233.2L497.8,233.2z"/>
</g>
</svg>
