<?xml version="1.0" encoding="utf-8"?>
<!-- Generator: Adobe Illustrator 18.0.0, SVG Export Plug-In . SVG Version: 6.00 Build 0)  -->
<!DOCTYPE svg PUBLIC "-//W3C//DTD SVG 1.1//EN" "http://www.w3.org/Graphics/SVG/1.1/DTD/svg11.dtd">
<svg version="1.1" id="Layer_1" xmlns="http://www.w3.org/2000/svg" xmlns:xlink="http://www.w3.org/1999/xlink" x="0px" y="0px"
	 viewBox="0 0 792 612" enable-background="new 0 0 792 612" xml:space="preserve">
<g>
	<g>
		<path fill="#FFFFFF" d="M425,300.3h-30.1v52.1h-20.1c0,0,0-117.2,0-122.4c0-5.2,4.9-10,10.3-10c5.4,0,39.9,0,39.9,0
			c25.9,0,42.4,17.1,42.4,40.2C467.4,283.2,450.9,300.3,425,300.3z M423.9,238h-29v44.1h29c14,0,23.4-8,23.4-22
			C447.4,246.2,437.9,238,423.9,238z"/>
	</g>
	<g>
		<path fill="#FFFFFF" d="M470.2,352.4l-30.5-43.8c0,0-3.4,1.6-13.7,1.6c-6,0-9.9,0-9.9,0l29,42.2L470.2,352.4z"/>
	</g>
</g>
<g>
	<path fill="#80A69F" d="M306,288.8c-0.1-27.7,8.8-51.5,26.9-72.4l-14.6-12.7c-21.3,24.6-31.7,52.6-31.6,85.1
		c0.2,71.6,58.4,129.5,130,129.3l0-19.3C355.7,399,306.2,349.8,306,288.8z"/>
</g>
<g>
	<path fill="#EBA227" d="M525.6,303.6C525.6,303.6,525.6,303.6,525.6,303.6c-7.6,54.9-53.6,95.1-109,95.2c0,0,0,0,0,0l0,19.3
		c65.1-0.2,119.2-47.5,128.1-111.9L525.6,303.6z"/>
</g>
<g>
	<path fill="#70C3DC" d="M484.8,178.4l-10.2,16.4c0,0,0,0,0,0c37.6,23.4,57.1,64.9,51.1,108.8l19.2,2.6
		C551.9,254.7,529,205.9,484.8,178.4z"/>
</g>
<g>
	<path fill="#A3C533" d="M474.5,194.9l10.2-16.4c-33.2-20.6-69.4-25.3-106.7-13.8l5.7,18.5c0,0,0,0,0,0
		C415.5,173.4,446.4,177.3,474.5,194.9z"/>
</g>
<g>
	<path fill="#CC4B29" d="M383.8,183.2l-5.7-18.5c-24.8,7.7-42.8,19.4-59.8,39.1l14.6,12.7c0,0,0,0,0,0
		C347.4,199.7,362.7,189.7,383.8,183.2z"/>
</g>
</svg>
