<?xml version="1.0" encoding="UTF-8" standalone="no"?>
<svg width="48px" height="48px" viewBox="0 0 48 48" version="1.1" xmlns="http://www.w3.org/2000/svg" xmlns:xlink="http://www.w3.org/1999/xlink">
    <!-- Generator: Sketch 50.2 (55047) - http://www.bohemiancoding.com/sketch -->
    <title>Group 2</title>
    <desc>Created with Sketch.</desc>
    <defs></defs>
    <g id="Page-1" stroke="none" stroke-width="1" fill="none" fill-rule="evenodd">
        <g id="01---Home-Page" transform="translate(-308.000000, -1159.000000)">
            <g id="Group-2" transform="translate(308.000000, 1159.000000)">
                <circle id="Oval-2-Copy" fill="#E6EBED" cx="24" cy="24" r="24"></circle>
                <circle id="Oval-3" fill="#FFFFFF" cx="24" cy="24" r="12"></circle>
                <g id="Group-5" transform="translate(10.666667, 10.666667)" fill="#3A6879" fill-rule="nonzero">
                    <path d="M13.3333333,25.5555556 C6.58318639,25.5555556 1.11111111,20.0834803 1.11111111,13.3333333 C1.11111111,6.58318639 6.58318639,1.11111111 13.3333333,1.11111111 C20.0834803,1.11111111 25.5555556,6.58318639 25.5555556,13.3333333 C25.5555556,20.0834803 20.0834803,25.5555556 13.3333333,25.5555556 Z M13.3333333,23.3333333 C18.8561808,23.3333333 23.3333333,18.8561808 23.3333333,13.3333333 C23.3333333,7.81048584 18.8561808,3.33333333 13.3333333,3.33333333 C7.81048584,3.33333333 3.33333333,7.81048584 3.33333333,13.3333333 C3.33333333,18.8561808 7.81048584,23.3333333 13.3333333,23.3333333 Z" id="Oval"></path>
                    <g id="Group-4" transform="translate(7.777778, 7.777778)">
                        <path d="M4.44444444,-2.22044605e-16 C4.44444444,-0.613649722 4.94190583,-1.11111111 5.55555556,-1.11111111 C6.16920528,-1.11111111 6.66666667,-0.613649722 6.66666667,-2.22044605e-16 L6.66666667,11.1111111 C6.66666667,11.7247608 6.16920528,12.2222222 5.55555556,12.2222222 C4.94190583,12.2222222 4.44444444,11.7247608 4.44444444,11.1111111 L4.44444444,-2.22044605e-16 Z" id="Shape-Copy-4"></path>
                        <path d="M-4.4408921e-16,6.66666667 C-0.613649722,6.66666667 -1.11111111,6.16920528 -1.11111111,5.55555556 C-1.11111111,4.94190583 -0.613649722,4.44444444 -4.4408921e-16,4.44444444 L11.1111111,4.44444444 C11.7247608,4.44444444 12.2222222,4.94190583 12.2222222,5.55555556 C12.2222222,6.16920528 11.7247608,6.66666667 11.1111111,6.66666667 L-4.4408921e-16,6.66666667 Z" id="Shape-Copy-5"></path>
                    </g>
                </g>
            </g>
        </g>
    </g>
</svg>