<?xml version="1.0" encoding="UTF-8" standalone="no"?>
<svg width="48px" height="48px" viewBox="0 0 48 48" version="1.1" xmlns="http://www.w3.org/2000/svg" xmlns:xlink="http://www.w3.org/1999/xlink">
    <!-- Generator: Sketch 50.2 (55047) - http://www.bohemiancoding.com/sketch -->
    <title>Group</title>
    <desc>Created with Sketch.</desc>
    <defs></defs>
    <g id="Page-1" stroke="none" stroke-width="1" fill="none" fill-rule="evenodd">
        <g id="01---Home-Page" transform="translate(-669.000000, -1157.000000)">
            <g id="Group" transform="translate(669.000000, 1157.000000)">
                <circle id="Oval-2" fill="#E6EBED" cx="24" cy="24" r="24"></circle>
                <circle id="Oval-4" fill="#FFFFFF" cx="23.5" cy="23.5" r="8.5"></circle>
                <g id="Group-3" transform="translate(14.000000, 14.000000)" fill="#3A6879" fill-rule="nonzero">
                    <path d="M9.60711111,18.992 C4.4239801,18.992 0.222222222,14.7902421 0.222222222,9.60711111 C0.222222222,4.4239801 4.4239801,0.222222222 9.60711111,0.222222222 C14.7902421,0.222222222 18.992,4.4239801 18.992,9.60711111 C18.992,14.7902421 14.7902421,18.992 9.60711111,18.992 Z M9.60711111,16.3253333 C13.3174828,16.3253333 16.3253333,13.3174828 16.3253333,9.60711111 C16.3253333,5.89673943 13.3174828,2.88888889 9.60711111,2.88888889 C5.89673943,2.88888889 2.88888889,5.89673943 2.88888889,9.60711111 C2.88888889,13.3174828 5.89673943,16.3253333 9.60711111,16.3253333 Z" id="Oval"></path>
                    <path d="M22.0539202,20.1683021 C22.5746192,20.6890011 22.5746192,21.5332211 22.0539202,22.0539202 C21.5332211,22.5746192 20.6890011,22.5746192 20.1683021,22.0539202 L14.3940798,16.2796979 C13.8733808,15.7589989 13.8733808,14.9147789 14.3940798,14.3940798 C14.9147789,13.8733808 15.7589989,13.8733808 16.2796979,14.3940798 L22.0539202,20.1683021 Z" id="Shape"></path>
                </g>
            </g>
        </g>
    </g>
</svg>