<?xml version="1.0" encoding="UTF-8" standalone="no"?>
<svg width="182px" height="48px" viewBox="0 0 182 48" version="1.1" xmlns="http://www.w3.org/2000/svg" xmlns:xlink="http://www.w3.org/1999/xlink">
    <!-- Generator: Sketch 50.2 (55047) - http://www.bohemiancoding.com/sketch -->
    <title>Group 8</title>
    <desc>Created with Sketch.</desc>
    <defs>
        <linearGradient x1="-0.000189825125%" y1="49.9997723%" x2="99.999487%" y2="49.9997723%" id="linearGradient-1">
            <stop stop-color="#F27B1F" offset="0%"></stop>
            <stop stop-color="#F9AF3F" offset="100%"></stop>
        </linearGradient>
    </defs>
    <g id="Page-1" stroke="none" stroke-width="1" fill="none" fill-rule="evenodd">
        <g id="01---Home-Page" transform="translate(-40.000000, -20.000000)">
            <g id="Group-8" transform="translate(40.000000, 20.000000)">
                <g id="Group">
                    <path d="M47.465,1.196 C40.904,6.74 38.052,14.148 34.32,21.9 C30.576,29.679 29.175,32.947 25.138,32.947 C24.663,32.947 23.826,32.891 23.565,32.516 C22.989,31.688 23.23,29.322 23.811,27.511 C23.925,27.191 23.99,26.999 24.002,26.962 C24.561,25.282 23.674,23.464 22.007,22.872 C20.339,22.279 18.504,23.129 17.878,24.785 C17.86,24.835 17.798,25.001 17.713,25.259 C17.311,26.395 15.939,30.1 13.921,33.779 C10.177,40.606 7.544,41.433 6.667,41.496 C6.467,40.85 6.107,38.56 7.889,32.426 C9.138,28.124 10.775,24.289 10.791,24.25 C11.498,22.601 10.735,20.69 9.086,19.982 C7.437,19.275 5.526,20.037 4.818,21.687 C4.745,21.857 3.018,25.897 1.654,30.586 C-0.437,37.781 -0.543,42.451 1.323,45.283 C2.478,47.035 4.334,48 6.55,48 C11.067,48 15.359,44.454 19.312,37.457 C20.5,38.526 22.337,39.447 25.138,39.447 C28.995,39.447 32.398,37.342 35.541,33.01 C37.971,29.663 37.944,29.358 40.177,24.72 C43.627,17.554 46.159,10.809 51.66,6.162 C53.032,5.003 53.204,2.952 52.045,1.582 C51.402,0.82 50.485,0.429 49.561,0.429 C48.821,0.429 48.076,0.681 47.465,1.196" id="Fill-1" fill="url(#linearGradient-1)"></path>
                    <path d="M24.4235,32.8991 C24.0655,32.8451 23.7175,32.7351 23.5655,32.5161 C22.9885,31.6881 23.2305,29.3221 23.8115,27.5101 L19.3125,37.4571 C20.0315,38.1041 20.9885,38.6971 22.2535,39.0651 L24.4235,32.8991 Z" id="Fill-23" fill="#F05A28"></path>
                </g>
                <text id="PHOTOWAVE" font-family="Avenir-BlackOblique, Avenir" font-size="20" font-style="italic" font-weight="700" fill="#FFFFFF">
                    <tspan x="49" y="36">PHOTOWAVE</tspan>
                </text>
            </g>
        </g>
    </g>
</svg>