<?xml version="1.0" encoding="UTF-8" standalone="no"?>
<svg width="43px" height="31px" viewBox="0 0 43 31" version="1.1" xmlns="http://www.w3.org/2000/svg" xmlns:xlink="http://www.w3.org/1999/xlink">
    <!-- Generator: Sketch 50.2 (55047) - http://www.bohemiancoding.com/sketch -->
    <title>Group 8</title>
    <desc>Created with Sketch.</desc>
    <defs></defs>
    <g id="Symbols" stroke="none" stroke-width="1" fill="none" fill-rule="evenodd">
        <g id="Desktop---Footer" transform="translate(-488.000000, -67.000000)" fill="#9FACB1">
            <g id="Group-8" transform="translate(488.000000, 67.000000)">
                <g id="Group">
                    <g id="Group-2">
                        <path d="M30.9117193,3.69668802 L29.9130435,5.85206712 L35.068058,21.7926362 L41.4714172,7.96775896 C42.8546987,4.98111213 41.6099619,1.57738825 38.7062975,0.402645309 C38.0308924,0.129885584 37.3215728,0 36.614418,0 C34.284415,0 31.9724516,1.40565065 30.9117193,3.69668802" id="Fill-1"></path>
                        <path d="M4.13396949,0.386770404 C1.63655835,1.32194661 0.0165964912,3.73421053 0,6.21213883 L0,6.29079176 C0.00360793288,6.83847597 0.086590389,7.38832494 0.255441648,7.92590694 L6.25832037,27.0097071 C7.20071243,30.0042914 10.4882609,31.5124073 13.5629413,30.3614767 C16.6390648,29.209103 18.3845828,25.8169245 17.4421907,22.8223402 L11.439312,3.73854005 C10.7119527,1.42585507 8.58688024,0 6.2402807,0 C5.54755759,0 4.83535164,0.124834477 4.13396949,0.386770404" id="Fill-4"></path>
                        <path d="M19.0906447,0.386770404 C16.0159643,1.53842258 14.2697248,4.93060107 15.2121168,7.92590694 L21.2149956,27.0089855 C22.1573876,30.0035698 25.4449361,31.5124073 28.5196165,30.3607551 L28.520338,30.3607551 C31.59574,29.209103 33.3412579,25.8162029 32.3988659,22.8216186 L26.3959872,3.73781846 C25.6686279,1.42585507 23.5435554,0 21.1969559,0 C20.5042328,0 19.7920268,0.124112891 19.0906447,0.386770404" id="Fill-7"></path>
                    </g>
                </g>
            </g>
        </g>
    </g>
</svg>