<?xml version="1.0" encoding="UTF-8" standalone="no"?>
<svg width="53px" height="48px" viewBox="0 0 53 48" version="1.1" xmlns="http://www.w3.org/2000/svg" xmlns:xlink="http://www.w3.org/1999/xlink">
    <!-- Generator: Sketch 50.2 (55047) - http://www.bohemiancoding.com/sketch -->
    <title>Fill 1</title>
    <desc>Created with Sketch.</desc>
    <defs></defs>
    <g id="Symbols" stroke="none" stroke-width="1" fill="none" fill-rule="evenodd">
        <g id="Desktop---Footer" transform="translate(-486.000000, -59.000000)" fill="#9FACB1">
            <path d="M533.4649,59.767 C526.9039,65.311 524.0519,72.719 520.3199,80.471 C516.5759,88.25 515.1749,91.518 511.1379,91.518 C510.6629,91.518 509.8259,91.462 509.5649,91.087 C508.9889,90.259 509.2299,87.893 509.8109,86.082 C509.9249,85.762 509.9899,85.57 510.0019,85.533 C510.5609,83.853 509.6739,82.035 508.0069,81.443 C506.3389,80.85 504.5039,81.7 503.8779,83.356 C503.8599,83.406 503.7979,83.572 503.7129,83.83 C503.3109,84.966 501.9389,88.671 499.9209,92.35 C496.1769,99.177 493.5439,100.004 492.6669,100.067 C492.4669,99.421 492.1069,97.131 493.8889,90.997 C495.1379,86.695 496.7749,82.86 496.7909,82.821 C497.4979,81.172 496.7349,79.261 495.0859,78.553 C493.4369,77.846 491.5259,78.608 490.8179,80.258 C490.7449,80.428 489.0179,84.468 487.6539,89.157 C485.5629,96.352 485.4569,101.022 487.3229,103.854 C488.4779,105.606 490.3339,106.571 492.5499,106.571 C497.0669,106.571 501.3589,103.025 505.3119,96.028 C506.4999,97.097 508.3369,98.018 511.1379,98.018 C514.9949,98.018 518.3979,95.913 521.5409,91.581 C523.9709,88.234 523.9439,87.929 526.1769,83.291 C529.6269,76.125 532.1589,69.38 537.6599,64.733 C539.0319,63.574 539.2039,61.523 538.0449,60.153 C537.4019,59.391 536.4849,59 535.5609,59 C534.8209,59 534.0759,59.252 533.4649,59.767" id="Fill-1"></path>
        </g>
    </g>
</svg>