<?xml version="1.0" encoding="UTF-8" standalone="no"?>
<svg width="187px" height="34px" viewBox="0 0 187 34" version="1.1" xmlns="http://www.w3.org/2000/svg" xmlns:xlink="http://www.w3.org/1999/xlink">
    <!-- Generator: Sketch 50.2 (55047) - http://www.bohemiancoding.com/sketch -->
    <title>Group 10</title>
    <desc>Created with Sketch.</desc>
    <defs>
        <path d="M1.15701555,4.26586603 L0.0859055024,6.57757536 L5.61481459,23.6743182 L12.4826112,8.8467189 C13.9662225,5.64344976 12.6312045,1.99285287 9.5169366,0.732905502 C8.79254426,0.44036244 8.03177751,0.30105622 7.27333254,0.30105622 C4.77433373,0.30105622 2.29468301,1.80865909 1.15701555,4.26586603" id="path-1"></path>
        <linearGradient x1="21.7617527%" y1="55.2870776%" x2="135.116427%" y2="28.0583418%" id="linearGradient-3">
            <stop stop-color="#F9AA3D" offset="0%"></stop>
            <stop stop-color="#F27B1F" offset="100%"></stop>
        </linearGradient>
        <path d="M4.43380742,0.595921053 C1.75525837,1.59892584 0.0178002392,4.18615191 0,6.84380502 L0,6.92816268 C0.00386961722,7.51557057 0.0928708134,8.10530024 0.2739689,8.68187321 L6.71223804,29.1498266 C7.72298206,32.3616089 11.2489773,33.9791089 14.5466651,32.744701 C17.8459007,31.5087452 19.7180215,27.8705311 18.7072775,24.6587488 L12.2690084,4.19079545 C11.4888935,1.71037081 9.209689,0.181098086 6.69288995,0.181098086 C5.94992344,0.181098086 5.186061,0.314986842 4.43380742,0.595921053" id="path-4"></path>
        <linearGradient x1="2.72624568%" y1="31.8739997%" x2="128.582638%" y2="80.1297725%" id="linearGradient-6">
            <stop stop-color="#F27B1F" offset="0%"></stop>
            <stop stop-color="#F9AF3F" offset="100%"></stop>
        </linearGradient>
        <path d="M4.65747129,0.715879187 C1.35978349,1.951061 -0.513111244,5.58927512 0.497632775,8.80183134 L6.93590191,29.2690108 C7.94664593,32.4807931 11.4726411,34.099067 14.7703289,32.8638852 L14.7711029,32.8638852 C18.0695646,31.6287033 19.9416854,27.9897153 18.9309414,24.777933 L12.4926722,4.30997967 C11.7125574,1.83032895 9.43335287,0.30105622 6.91655383,0.30105622 C6.17358732,0.30105622 5.40972488,0.434171053 4.65747129,0.715879187" id="path-7"></path>
        <linearGradient x1="-55.7628662%" y1="9.44708393%" x2="70.0924034%" y2="57.7035277%" id="linearGradient-9">
            <stop stop-color="#F27B1F" offset="0%"></stop>
            <stop stop-color="#F9AF3F" offset="100%"></stop>
        </linearGradient>
    </defs>
    <g id="Page-1" stroke="none" stroke-width="1" fill="none" fill-rule="evenodd">
        <g id="02---Features" transform="translate(-40.000000, -31.000000)">
            <g id="Group-10" transform="translate(40.000000, 31.000000)">
                <g id="Group">
                    <g id="Group-3" transform="translate(30.956938, 0.592825)">
                        <mask id="mask-2" fill="white">
                            <use xlink:href="#path-1"></use>
                        </mask>
                        <g id="Clip-2"></g>
                        <path d="M1.15701555,4.26586603 L0.0859055024,6.57757536 L5.61481459,23.6743182 L12.4826112,8.8467189 C13.9662225,5.64344976 12.6312045,1.99285287 9.5169366,0.732905502 C8.79254426,0.44036244 8.03177751,0.30105622 7.27333254,0.30105622 C4.77433373,0.30105622 2.29468301,1.80865909 1.15701555,4.26586603" id="Fill-1" fill="url(#linearGradient-3)" mask="url(#mask-2)"></path>
                    </g>
                    <g id="Group-6" transform="translate(0.000000, 0.592825)">
                        <mask id="mask-5" fill="white">
                            <use xlink:href="#path-4"></use>
                        </mask>
                        <g id="Clip-5"></g>
                        <path d="M4.43380742,0.595921053 C1.75525837,1.59892584 0.0178002392,4.18615191 0,6.84380502 L0,6.92816268 C0.00386961722,7.51557057 0.0928708134,8.10530024 0.2739689,8.68187321 L6.71223804,29.1498266 C7.72298206,32.3616089 11.2489773,33.9791089 14.5466651,32.744701 C17.8459007,31.5087452 19.7180215,27.8705311 18.7072775,24.6587488 L12.2690084,4.19079545 C11.4888935,1.71037081 9.209689,0.181098086 6.69288995,0.181098086 C5.94992344,0.181098086 5.186061,0.314986842 4.43380742,0.595921053" id="Fill-4" fill="url(#linearGradient-6)" mask="url(#mask-5)"></path>
                    </g>
                    <g id="Group-9" transform="translate(15.478469, 0.592825)">
                        <mask id="mask-8" fill="white">
                            <use xlink:href="#path-7"></use>
                        </mask>
                        <g id="Clip-8"></g>
                        <path d="M4.65747129,0.715879187 C1.35978349,1.951061 -0.513111244,5.58927512 0.497632775,8.80183134 L6.93590191,29.2690108 C7.94664593,32.4807931 11.4726411,34.099067 14.7703289,32.8638852 L14.7711029,32.8638852 C18.0695646,31.6287033 19.9416854,27.9897153 18.9309414,24.777933 L12.4926722,4.30997967 C11.7125574,1.83032895 9.43335287,0.30105622 6.91655383,0.30105622 C6.17358732,0.30105622 5.40972488,0.434171053 4.65747129,0.715879187" id="Fill-7" fill="url(#linearGradient-9)" mask="url(#mask-8)"></path>
                    </g>
                </g>
                <g id="Group-29" transform="translate(48.453390, 10.024466)" fill="#2B3133">
                    <path d="M5.82896822,3.57490297 L7.32815466,3.57490297 C7.62126483,3.57490297 7.93439619,3.59252161 8.25873941,3.6261572 C8.56226059,3.65899195 8.83534958,3.73347076 9.06999788,3.84799195 C9.29743856,3.95770805 9.46881992,4.10826737 9.59615466,4.30847924 C9.71468008,4.49587754 9.75071822,4.75615297 9.70266737,5.08129703 C9.66422669,5.40083517 9.57132839,5.66111059 9.42557415,5.86132246 C9.27581568,6.06633941 9.09322246,6.23051314 8.88259958,6.34903856 C8.66316737,6.47076737 8.42211229,6.55886059 8.1674428,6.60931398 C7.90076059,6.66216992 7.62526907,6.68939873 7.34897669,6.68939873 L5.40291737,6.68939873 L5.82896822,3.57490297 Z M8.28997246,0.413157203 L2.78895127,0.413157203 C2.68884534,0.413157203 2.60395551,0.486835169 2.5903411,0.585339407 L0.519349576,15.3962123 C0.511341102,15.4538733 0.528959746,15.5115343 0.566599576,15.5555809 C0.605040254,15.5996275 0.659497881,15.6244538 0.717959746,15.6244538 L3.98061229,15.6244538 C4.08071822,15.6244538 4.16560805,15.5507758 4.17922246,15.4514708 L4.95043856,9.85034364 L7.16077754,9.85034364 C7.95281568,9.85034364 8.70961653,9.77506398 9.40875636,9.6269072 C10.1223114,9.47474619 10.7637903,9.21527161 11.3171758,8.8556911 C11.8753665,8.4945089 12.3502691,8.00198771 12.7282691,7.39174195 C13.1030657,6.78550042 13.358536,6.02789873 13.4874725,5.1397589 C13.6172097,4.22999619 13.5643538,3.46118263 13.3305064,2.85333941 C13.0942564,2.24149195 12.7258665,1.74736907 12.2373496,1.38378432 C11.7560403,1.02580551 11.1634131,0.771136017 10.4754852,0.626983475 C9.80037076,0.485233475 9.0651928,0.413157203 8.28997246,0.413157203 Z" id="Fill-10"></path>
                    <path d="M28.83195,0.412916949 L25.5684966,0.412916949 C25.4683907,0.412916949 25.3843017,0.486594915 25.3698864,0.585099153 L24.6210941,5.93556102 L18.6860136,5.93556102 L19.4283992,0.641158475 C19.4364076,0.583497458 19.4195898,0.525836441 19.3811492,0.481789831 C19.3435093,0.43774322 19.2882508,0.412916949 19.2305898,0.412916949 L15.9671364,0.412916949 C15.8670305,0.412916949 15.7821407,0.486594915 15.7685263,0.585099153 L13.6975347,15.3967729 C13.6895263,15.4536331 13.7071449,15.5120949 13.7447847,15.5553407 C13.7824246,15.5993873 13.8376831,15.6242136 13.8961449,15.6242136 L17.1595983,15.6242136 C17.2589034,15.6242136 17.3437932,15.5505356 17.3574076,15.4520314 L18.2327339,9.22303983 L24.1662127,9.22303983 L23.2988949,15.395972 C23.2908864,15.4536331 23.3085051,15.5120949 23.3461449,15.5553407 C23.3845856,15.5993873 23.4390432,15.6242136 23.4975051,15.6242136 L26.7609585,15.6242136 C26.8610644,15.6242136 26.9451534,15.5505356 26.9595686,15.4520314 L29.0305602,0.641158475 C29.0385686,0.583497458 29.02095,0.525836441 28.9833102,0.481789831 C28.9448695,0.43774322 28.889611,0.412916949 28.83195,0.412916949" id="Fill-12"></path>
                    <path d="M37.3245369,12.588361 C36.6590326,12.588361 36.0680072,12.4746407 35.5658758,12.2496025 C35.0685496,12.0277678 34.6537106,11.7122339 34.3325708,11.3134119 C34.0106301,10.9129881 33.7807869,10.4332805 33.6494479,9.88630169 C33.5165072,9.3345178 33.496486,8.71546271 33.5901852,8.04675508 C33.6838843,7.39086102 33.8776894,6.77180593 34.1667953,6.20640763 C34.4526979,5.64581441 34.8226894,5.15489492 35.2647572,4.74566186 C35.7028208,4.34043305 36.2169648,4.01849237 36.7919733,3.79105169 C37.3637784,3.56441186 37.9940453,3.44989068 38.6635538,3.44989068 C39.3298589,3.44989068 39.9216852,3.56361102 40.4230157,3.78704746 C40.9219436,4.01128475 41.3407869,4.32681864 41.6675326,4.72564068 C41.9942784,5.12366186 42.2233208,5.60657288 42.3490538,6.15915763 C42.4747869,6.71814915 42.4916047,7.33400085 42.3979055,7.99069576 C42.3042064,8.66260678 42.1104013,9.2856661 41.822897,9.84145424 C41.5345919,10.3972424 41.1646004,10.8849585 40.7241343,11.291789 C40.2836682,11.6986195 39.7695242,12.0197593 39.1969182,12.2463992 C38.6227106,12.473039 37.9924436,12.588361 37.3245369,12.588361 M39.1032191,0.0366788136 C37.9291767,0.0366788136 36.8015835,0.223276271 35.7524733,0.591666102 C34.7025623,0.96085678 33.7559606,1.49742458 32.9382953,2.18615339 C32.1222318,2.87568305 31.4311004,3.72137797 30.8849225,4.70001356 C30.3387445,5.67784831 29.9759606,6.78542034 29.8053801,7.99069576 C29.6347996,9.19837373 29.6860538,10.30995 29.9567403,11.2933907 C30.2290284,12.2824373 30.6871131,13.1361407 31.3189818,13.832878 C31.9508504,14.5288144 32.7541004,15.0709881 33.7063081,15.4433822 C34.6529097,15.8133737 35.7300496,16.000772 36.9072953,16.000772 C38.0805369,16.000772 39.2049267,15.8141746 40.2476301,15.4457847 C41.2895326,15.0765941 42.2361343,14.5400263 43.0594055,13.8520983 C43.8842784,13.1617678 44.5754097,12.3160729 45.1151809,11.3366364 C45.6541513,10.3572 46.0137318,9.25042881 46.1835114,8.04675508 C46.3540919,6.84067881 46.3028377,5.72990339 46.0321513,4.74406017 C45.7598631,3.75581441 45.3009775,2.90211102 44.6699097,2.20457288 C44.0380411,1.50863644 43.2379945,0.967263559 42.2929945,0.594068644 C41.3536004,0.224077119 40.2804648,0.0366788136 39.1032191,0.0366788136" id="Fill-14"></path>
                    <path d="M59.6028318,0.412916949 L47.8880352,0.412916949 C47.7879292,0.412916949 47.7030394,0.486594915 47.689425,0.5859 L47.2922047,3.47295508 C47.2841962,3.5306161 47.3018148,3.58827712 47.3402555,3.63232373 C47.3778953,3.67556949 47.4331538,3.70039576 47.4908148,3.70039576 L51.4862428,3.70039576 L49.8445055,15.395972 C49.836497,15.4536331 49.8533148,15.5120949 49.8917555,15.5553407 C49.9293953,15.5993873 49.9846538,15.6242136 50.0423148,15.6242136 L53.3065691,15.6242136 C53.4058742,15.6242136 53.490764,15.5505356 53.5043784,15.4520314 L55.1541242,3.70039576 L59.2056114,3.70039576 C59.3057174,3.70039576 59.3906072,3.6267178 59.4042216,3.52821356 L59.8014419,0.640357627 C59.8094504,0.58269661 59.7918318,0.525035593 59.7533911,0.481789831 C59.7157513,0.43774322 59.6604928,0.412916949 59.6028318,0.412916949" id="Fill-16"></path>
                    <path d="M66.7353394,12.588361 C66.0698352,12.588361 65.4788097,12.4746407 64.9766784,12.2496025 C64.4793521,12.0277678 64.0645131,11.7122339 63.7433733,11.3134119 C63.4214326,10.9129881 63.1915894,10.4332805 63.0602504,9.88630169 C62.9273097,9.3345178 62.9072886,8.71546271 63.0009877,8.04675508 C63.0946869,7.39086102 63.2884919,6.77180593 63.5775979,6.20640763 C63.8635004,5.64581441 64.2334919,5.15489492 64.6755597,4.74566186 C65.1136233,4.34043305 65.6277674,4.01849237 66.2027758,3.79105169 C66.7745809,3.56441186 67.4048479,3.44989068 68.0743564,3.44989068 C68.7406614,3.44989068 69.3324877,3.56361102 69.8338182,3.78704746 C70.3327462,4.01128475 70.7515894,4.32681864 71.0783352,4.72564068 C71.4050809,5.12366186 71.6341233,5.60657288 71.7598564,6.15915763 C71.8855894,6.71814915 71.9024072,7.33400085 71.8087081,7.99069576 C71.7150089,8.66260678 71.5212038,9.2856661 71.2336996,9.84145424 C70.9453945,10.3972424 70.575403,10.8849585 70.1349369,11.291789 C69.6944708,11.6986195 69.1803267,12.0197593 68.6077208,12.2463992 C68.0335131,12.473039 67.4032462,12.588361 66.7353394,12.588361 M68.5140216,0.0366788136 C67.3399792,0.0366788136 66.212386,0.223276271 65.1632758,0.591666102 C64.1133648,0.96085678 63.1667631,1.49742458 62.3490979,2.18615339 C61.5330343,2.87568305 60.841903,3.72137797 60.295725,4.70001356 C59.749547,5.67784831 59.3867631,6.78542034 59.2161826,7.99069576 C59.0456021,9.19837373 59.0968564,10.30995 59.3675428,11.2933907 C59.6398309,12.2824373 60.0979157,13.1361407 60.7297843,13.832878 C61.361653,14.5288144 62.164903,15.0709881 63.1171106,15.4433822 C64.0637123,15.8133737 65.1408521,16.000772 66.3180979,16.000772 C67.4913394,16.000772 68.6157292,15.8141746 69.6584326,15.4457847 C70.7003352,15.0765941 71.6469369,14.5400263 72.4702081,13.8520983 C73.2950809,13.1617678 73.9862123,12.3160729 74.5259835,11.3366364 C75.0649538,10.3572 75.4245343,9.25042881 75.594314,8.04675508 C75.7648945,6.84067881 75.7136403,5.72990339 75.4429538,4.74406017 C75.1706657,3.75581441 74.7117801,2.90211102 74.0807123,2.20457288 C73.4488436,1.50863644 72.648797,0.967263559 71.703797,0.594068644 C70.764403,0.224077119 69.6912674,0.0366788136 68.5140216,0.0366788136" id="Fill-18"></path>
                    <path d="M98.1139042,0.412916949 L94.8088068,0.412916949 C94.7263195,0.412916949 94.6526415,0.463370339 94.6230102,0.539450847 L91.0047814,9.70114576 L89.3990822,0.578692373 C89.3822644,0.482590678 89.2989763,0.412916949 89.2020737,0.412916949 L86.1692644,0.412916949 C86.0915822,0.412916949 86.0211076,0.457764407 85.987472,0.528238983 L81.8222644,9.44807797 L80.8660525,0.591505932 C80.8556415,0.489798305 80.7699508,0.412916949 80.6674424,0.412916949 L77.1108788,0.412916949 C77.0524169,0.412916949 76.9971585,0.438544068 76.9587178,0.482590678 C76.921078,0.527438136 76.9042602,0.586700847 76.9130695,0.644361864 L79.2355271,15.4552347 C79.2507432,15.5521373 79.3348322,15.6242136 79.4333364,15.6242136 L82.2363025,15.6242136 C82.3147856,15.6242136 82.386061,15.5785653 82.4180949,15.5072898 L86.8684042,5.77378983 L88.6078449,15.459239 C88.6246627,15.5545398 88.7079508,15.6242136 88.8048534,15.6242136 L91.7127305,15.6242136 C91.7928153,15.6242136 91.8648915,15.5769636 91.8961246,15.5032856 L98.2972983,0.692412712 C98.3245271,0.630747458 98.3181203,0.559472034 98.2812814,0.503412712 C98.2444424,0.446552542 98.1811754,0.412916949 98.1139042,0.412916949" id="Fill-20"></path>
                    <path d="M102.463067,9.32474746 L104.511634,5.47347203 L105.491872,9.32474746 L102.463067,9.32474746 Z M106.627473,0.412916949 L103.929418,0.412916949 C103.857342,0.412916949 103.790872,0.451357627 103.755634,0.513823729 L95.2834691,15.3246966 C95.2482318,15.3863619 95.2482318,15.4632432 95.2842699,15.5249085 C95.3195072,15.5865737 95.3859775,15.6242136 95.457253,15.6242136 L99.0554606,15.6242136 C99.1291386,15.6242136 99.1972106,15.5833703 99.2324479,15.5185017 L100.848558,12.4864932 L106.327156,12.4864932 L107.1248,15.4760568 C107.148024,15.5633492 107.227308,15.6242136 107.317804,15.6242136 L110.9993,15.6242136 C111.062567,15.6242136 111.121829,15.5945822 111.159469,15.5441288 C111.19791,15.4936754 111.209122,15.4280059 111.191503,15.3671415 L106.819677,0.556268644 C106.79485,0.471378814 106.716367,0.412916949 106.627473,0.412916949 Z" id="Fill-22"></path>
                    <path d="M126.437556,0.412916949 L122.94426,0.412916949 C122.869781,0.412916949 122.800908,0.454561017 122.766472,0.520230508 L117.903726,9.80765847 L115.712607,0.566679661 C115.691785,0.476984746 115.6109,0.412916949 115.518001,0.412916949 L111.794861,0.412916949 C111.732395,0.412916949 111.673933,0.441747458 111.636294,0.490599153 C111.598654,0.539450847 111.585039,0.603518644 111.601056,0.663582203 L115.449929,15.4744551 C115.472353,15.5625483 115.552438,15.6242136 115.642933,15.6242136 L118.258501,15.6242136 C118.331378,15.6242136 118.39865,15.584972 118.433887,15.5209042 L126.612942,0.710031356 C126.647378,0.647565254 126.645777,0.572285593 126.609739,0.511421186 C126.5737,0.45055678 126.508031,0.412916949 126.437556,0.412916949" id="Fill-24"></path>
                    <path d="M138.172694,0.412916949 L128.111648,0.412916949 C128.011542,0.412916949 127.926652,0.486594915 127.913038,0.585099153 L125.842046,15.3967729 C125.834038,15.4536331 125.850856,15.5120949 125.889296,15.5553407 C125.926936,15.5993873 125.982194,15.6242136 126.040656,15.6242136 L136.478902,15.6242136 C136.579008,15.6242136 136.663097,15.5505356 136.676711,15.4520314 L137.095555,12.4392432 C137.103563,12.3815822 137.085944,12.3239212 137.048305,12.2798746 C137.009864,12.2366288 136.955406,12.2110017 136.896944,12.2110017 L129.951194,12.2110017 L130.313978,9.59943814 L136.56219,9.59943814 C136.662296,9.59943814 136.747186,9.52576017 136.7608,9.42645508 L137.178843,6.4144678 C137.186851,6.35760763 137.170033,6.29914576 137.131593,6.2559 C137.093953,6.21185339 137.038694,6.18702712 136.981033,6.18702712 L130.789682,6.18702712 L131.129241,3.82612881 L137.754652,3.82612881 C137.853957,3.82612881 137.938847,3.75245085 137.952461,3.65314576 L138.371305,0.640357627 C138.379313,0.583497458 138.361694,0.525035593 138.324055,0.481789831 C138.285614,0.43774322 138.230356,0.412916949 138.172694,0.412916949" id="Fill-26"></path>
                </g>
            </g>
        </g>
    </g>
</svg>